# xmcd
#
# Track frame offsets:
#	150
#	26980
#	41000
#	54981
#	71481
#	89986
#	107853
#	127909
#	145984
#	162699
#	177841
#	200024
#	219189
#	233969
#	251591
#	269673
#	292356
#
# Disc length: 4421 seconds
#
# Revision: 0
# Processed by: cddbd v1.5.2PL0 Copyright (c) Steve Scherf et al.
# Submitted via: EasyCDDAExtractor 16.0.8.1
#
DISCID=17114311
DTITLE=Padre Alessandro Campos - Quando Deus Quer, Ninguém Segura
DYEAR=2015
DGENRE=Gospel
TTITLE0=Um certo Galileu
TTITLE1=O queé que eu sou sem Jesus? (Nada, nada, nada)
TTITLE2=Padroeira Sertaneja
TTITLE3=Maria
TTITLE4=O homem decepciona, Jesus Cristo jamais
TTITLE5=Dia de formatura
TTITLE6=Deus está aqui (Noites traiçoeiras) P.E.: Padre Antonio Maria
TTITLE7=O último julgamento P.E.: Padre Fábio de Melo
TTITLE8=Quem vai mandar no mundo é a mulher
TTITLE9=Moreninha linda - Cana verde
TTITLE10=Homem de pedra - Telefone mudo - As andorinhas P.E.: Trio do Brasil
TTITLE11=Majestade, o sabiá P.E.: Roberta Miranda
TTITLE12=Amor de primavera P.E.: Di Paulo and Paulino
TTITLE13=Rédeas do possante
TTITLE14=Filho pródigo
TTITLE15=Amar como Jesus amou
TTITLE16=Salmo 23 (O Bom Pastor)
EXTD=
EXTT0=
EXTT1=
EXTT2=
EXTT3=
EXTT4=
EXTT5=
EXTT6=
EXTT7=
EXTT8=
EXTT9=
EXTT10=
EXTT11=
EXTT12=
EXTT13=
EXTT14=
EXTT15=
EXTT16=
PLAYORDER=
